#N canvas 0 54 1920 1001 10;
#X obj 67 114 list prepend send;
#X msg 252 240 connect localhost 3001;
#X obj 66 138 list trim;
#X obj 70 266 netsend -u -b;
#X obj 62 90 oscformat peaks;
#X obj 56 70 sigmund~ -npeak 20 tracks;
#X obj 252 215 loadbang;
#X obj 56 46 adc~ 1;
#X obj 75 198 spigot;
#X obj 240 135 ctlin;
#X obj 241 154 == 0;
#X connect 0 0 2 0;
#X connect 1 0 3 0;
#X connect 2 0 8 0;
#X connect 4 0 0 0;
#X connect 5 0 4 0;
#X connect 6 0 1 0;
#X connect 7 0 5 0;
#X connect 8 0 3 0;
#X connect 9 0 10 0;
#X connect 10 0 8 1;
