#N canvas 0 54 1920 1001 10;
#X obj 67 114 list prepend send;
#X msg 255 208 connect localhost 3001;
#X obj 66 138 list trim;
#X obj 62 246 netsend -u -b;
#X obj 62 90 oscformat peaks;
#X obj 344 14 loadbang;
#X obj 57 10 adc~ 1;
#X msg 166 197 \; pd dsp 1;
#X obj 100 174 t b b b, f 24;
#X obj 63 218 spigot;
#X obj 100 198 int 1;
#X msg 344 35 listen 3002;
#X obj 343 58 netreceive -u -b;
#X obj 343 76 oscparse;
#X obj 345 95 list trim;
#X obj 344 119 route fromSC;
#X obj 344 140 route start;
#X obj 56 70 sigmund~ -hop 256 -npeak 20 tracks;
#X connect 0 0 2 0;
#X connect 1 0 3 0;
#X connect 2 0 9 0;
#X connect 4 0 0 0;
#X connect 5 0 11 0;
#X connect 6 0 17 0;
#X connect 8 0 10 0;
#X connect 8 1 7 0;
#X connect 8 2 1 0;
#X connect 9 0 3 0;
#X connect 10 0 9 1;
#X connect 11 0 12 0;
#X connect 12 0 13 0;
#X connect 13 0 14 0;
#X connect 14 0 15 0;
#X connect 15 0 16 0;
#X connect 16 0 8 0;
#X connect 17 0 4 0;
