#N canvas 0 54 1920 1001 10;
#X obj 57 378 list prepend send;
#X msg 433 433 connect localhost 3001;
#X obj 56 402 list trim;
#X obj 55 468 netsend -u -b;
#X obj 56 354 oscformat peaks;
#X obj 293 234 loadbang;
#X msg 358 407 \; pd dsp 1;
#X obj 292 384 t b b b, f 24;
#X obj 55 432 spigot, f 40;
#X obj 292 408 int 1;
#X msg 293 255 listen 3002;
#X obj 292 278 netreceive -u -b;
#X obj 292 296 oscparse;
#X obj 294 315 list trim;
#X obj 293 339 route fromSC;
#X obj 293 360 route start;
#X obj 56 329 sigmund~ -hop 256 -npeak 20 tracks;
#X obj 530 129 line~;
#X obj 407 153 *~, f 21;
#X msg 532 105 \$1 10;
#X text 51 492 To SuperCollider;
#X obj 56 299 catch~ mixed_inputs;
#X obj 37 15 adc~ 1 2 3 4 5, f 62;
#X obj 37 199 throw~ mixed_inputs;
#X obj 37 42 hip~ 750;
#X obj 37 70 lop~ 2250;
#X obj 206 70 lop~ 2250;
#X obj 407 185 throw~ mixed_inputs;
#X obj 597 85 loadbang;
#X msg 597 108 0 0;
#X obj 531 76 / 127;
#X obj 406 58 tanh~;
#X obj 533 53 clip 0 50;
#X obj 407 128 lop~ 5000;
#X obj 407 104 hip~ 750;
#X obj 406 38 *~ 20;
#X obj 406 78 *~ 0.05;
#X obj 700 27 osc~ 1000;
#X obj 699 52 dac~ 6;
#X obj 535 -9 adc~ 6;
#X obj 535 11 peakamp~ 25;
#X obj 535 32 scale 0.22 0.6 0 50 0.5;
#X obj 54 136 hsl 128 15 0 127 0 0 empty empty empty -2 -8 0 10 -262144
-1 -1 6900 1;
#X obj 51 155 midi2sig;
#X obj 36 176 *~;
#X obj 207 201 throw~ mixed_inputs;
#X obj 224 137 hsl 128 15 0 127 0 0 empty empty empty -2 -8 0 10 -262144
-1 -1 5300 1;
#X obj 221 157 midi2sig;
#X obj 206 178 *~;
#X obj 112 45 ctlin;
#X obj 112 65 pack;
#X msg 112 86 \$2 \$1;
#X obj 111 106 route 41 42;
#X obj 207 44 hip~ 500;
#X connect 0 0 2 0;
#X connect 1 0 3 0;
#X connect 2 0 8 0;
#X connect 4 0 0 0;
#X connect 5 0 10 0;
#X connect 7 0 9 0;
#X connect 7 1 6 0;
#X connect 7 2 1 0;
#X connect 8 0 3 0;
#X connect 9 0 8 1;
#X connect 10 0 11 0;
#X connect 11 0 12 0;
#X connect 12 0 13 0;
#X connect 13 0 14 0;
#X connect 14 0 15 0;
#X connect 15 0 7 0;
#X connect 16 0 4 0;
#X connect 17 0 18 1;
#X connect 18 0 27 0;
#X connect 19 0 17 0;
#X connect 21 0 16 0;
#X connect 22 0 24 0;
#X connect 22 1 53 0;
#X connect 22 4 35 0;
#X connect 24 0 25 0;
#X connect 25 0 44 0;
#X connect 26 0 48 0;
#X connect 28 0 29 0;
#X connect 29 0 17 0;
#X connect 30 0 19 0;
#X connect 31 0 36 0;
#X connect 32 0 30 0;
#X connect 33 0 18 0;
#X connect 34 0 33 0;
#X connect 35 0 31 0;
#X connect 36 0 34 0;
#X connect 37 0 38 0;
#X connect 39 0 40 0;
#X connect 40 0 41 0;
#X connect 41 0 32 0;
#X connect 42 0 43 0;
#X connect 43 0 44 1;
#X connect 44 0 23 0;
#X connect 46 0 47 0;
#X connect 47 0 48 1;
#X connect 48 0 45 0;
#X connect 49 0 50 0;
#X connect 49 1 50 1;
#X connect 50 0 51 0;
#X connect 51 0 52 0;
#X connect 52 0 42 0;
#X connect 52 1 46 0;
#X connect 53 0 26 0;
